<svg xmlns="http://www.w3.org/2000/svg" version="1.1" width="500px" height="500px" style="shape-rendering:geometricPrecision; text-rendering:geometricPrecision; image-rendering:optimizeQuality; fill-rule:evenodd; clip-rule:evenodd" xmlns:xlink="http://www.w3.org/1999/xlink">
<g><path style="opacity:1" fill="#fffefe" d="M -0.5,-0.5 C 166.167,-0.5 332.833,-0.5 499.5,-0.5C 499.5,166.167 499.5,332.833 499.5,499.5C 332.833,499.5 166.167,499.5 -0.5,499.5C -0.5,412.5 -0.5,325.5 -0.5,238.5C 6.63264,279.759 30.966,303.592 72.5,310C 111.174,311.31 138.674,294.477 155,259.5C 167.752,218.421 156.585,185.587 121.5,161C 81.3451,140.877 46.1785,147.377 16,180.5C 7.87052,191.745 2.37052,204.078 -0.5,217.5C -0.5,144.833 -0.5,72.1667 -0.5,-0.5 Z"/></g>
<g><path style="opacity:1" fill="#e50c15" d="M -0.5,238.5 C -0.5,231.5 -0.5,224.5 -0.5,217.5C 2.37052,204.078 7.87052,191.745 16,180.5C 46.1785,147.377 81.3451,140.877 121.5,161C 156.585,185.587 167.752,218.421 155,259.5C 138.674,294.477 111.174,311.31 72.5,310C 30.966,303.592 6.63264,279.759 -0.5,238.5 Z"/></g>
<g><path style="opacity:1" fill="#fefcfc" d="M 57.5,195.5 C 78.2104,205.356 98.5437,216.023 118.5,227.5C 98.8347,240.335 78.8347,252.668 58.5,264.5C 57.5003,241.51 57.1669,218.51 57.5,195.5 Z"/></g>
<g><path style="opacity:1" fill="#e61c1e" d="M 318.5,212.5 C 326.999,211.039 333.166,214.039 337,221.5C 337.901,229.579 337.568,237.579 336,245.5C 329.973,252.465 322.806,253.965 314.5,250C 311.894,248.062 310.061,245.562 309,242.5C 308.333,235.5 308.333,228.5 309,221.5C 310.871,217.006 314.038,214.006 318.5,212.5 Z"/></g>
<g><path style="opacity:1" fill="#f07379" d="M 458.5,213.5 C 461.024,212.2 463.691,212.2 466.5,213.5C 466.376,214.107 466.043,214.44 465.5,214.5C 463.393,213.532 461.059,213.198 458.5,213.5 Z"/></g>
<g><path style="opacity:1" fill="#e61e1e" d="M 176.5,212.5 C 179.448,212.223 182.281,212.556 185,213.5C 187.333,222.167 189.667,230.833 192,239.5C 194.667,230.833 197.333,222.167 200,213.5C 202.381,212.565 204.881,212.232 207.5,212.5C 203.678,225.455 200.011,238.455 196.5,251.5C 193.552,251.777 190.719,251.444 188,250.5C 184.163,237.815 180.33,225.148 176.5,212.5 Z"/></g>
<g><path style="opacity:1" fill="#e6181d" d="M 216.5,212.5 C 219.167,212.5 221.833,212.5 224.5,212.5C 224.5,225.5 224.5,238.5 224.5,251.5C 221.833,251.5 219.167,251.5 216.5,251.5C 216.5,238.5 216.5,225.5 216.5,212.5 Z"/></g>
<g><path style="opacity:1" fill="#e6181b" d="M 235.5,212.5 C 259.786,208.62 268.953,218.62 263,242.5C 261.526,246.641 258.693,249.474 254.5,251C 248.175,251.5 241.842,251.666 235.5,251.5C 235.5,238.5 235.5,225.5 235.5,212.5 Z"/></g>
<g><path style="opacity:1" fill="#e5161a" d="M 281.5,235.5 C 280.521,238.625 280.187,241.958 280.5,245.5C 286.833,245.5 293.167,245.5 299.5,245.5C 299.5,247.5 299.5,249.5 299.5,251.5C 290.833,251.5 282.167,251.5 273.5,251.5C 273.5,238.5 273.5,225.5 273.5,212.5C 282.167,212.5 290.833,212.5 299.5,212.5C 299.5,214.833 299.5,217.167 299.5,219.5C 293.167,219.5 286.833,219.5 280.5,219.5C 280.5,222.5 280.5,225.5 280.5,228.5C 284.833,228.5 289.167,228.5 293.5,228.5C 293.5,230.833 293.5,233.167 293.5,235.5C 289.5,235.5 285.5,235.5 281.5,235.5 Z"/></g>
<g><path style="opacity:1" fill="#e61a1d" d="M 355.5,228.5 C 359.298,229.483 363.298,229.817 367.5,229.5C 367.5,231.167 367.5,232.833 367.5,234.5C 363.298,234.183 359.298,234.517 355.5,235.5C 355.5,240.833 355.5,246.167 355.5,251.5C 352.833,251.5 350.167,251.5 347.5,251.5C 347.5,238.5 347.5,225.5 347.5,212.5C 356.173,212.334 364.84,212.5 373.5,213C 374.423,215.041 374.756,217.208 374.5,219.5C 368.167,219.5 361.833,219.5 355.5,219.5C 355.5,222.5 355.5,225.5 355.5,228.5 Z"/></g>
<g><path style="opacity:1" fill="#e5141a" d="M 390.5,244.5 C 396.31,245.49 402.31,245.823 408.5,245.5C 408.5,247.5 408.5,249.5 408.5,251.5C 399.833,251.5 391.167,251.5 382.5,251.5C 382.5,238.5 382.5,225.5 382.5,212.5C 385.167,212.5 387.833,212.5 390.5,212.5C 390.5,223.167 390.5,233.833 390.5,244.5 Z"/></g>
<g><path style="opacity:1" fill="#e51017" d="M 418.5,212.5 C 420.833,212.5 423.167,212.5 425.5,212.5C 425.5,225.5 425.5,238.5 425.5,251.5C 423.167,251.5 420.833,251.5 418.5,251.5C 418.5,238.5 418.5,225.5 418.5,212.5 Z"/></g>
<g><path style="opacity:1" fill="#e61b1d" d="M 458.5,213.5 C 461.059,213.198 463.393,213.532 465.5,214.5C 462.179,220.473 458.845,226.473 455.5,232.5C 459.167,238.5 462.833,244.5 466.5,250.5C 463.894,251.652 461.227,251.818 458.5,251C 455.602,247.095 453.102,242.929 451,238.5C 448.25,242.332 445.75,246.332 443.5,250.5C 440.833,251.833 438.167,251.833 435.5,250.5C 438.968,244.397 442.301,238.231 445.5,232C 441.489,225.811 438.156,219.311 435.5,212.5C 438.247,212.187 440.914,212.52 443.5,213.5C 445.833,217.5 448.167,221.5 450.5,225.5C 453.19,221.435 455.857,217.435 458.5,213.5 Z"/></g>
<g><path style="opacity:1" fill="#fefbfb" d="M 319.5,219.5 C 323.287,218.814 326.454,219.814 329,222.5C 329.667,229.167 329.667,235.833 329,242.5C 324.522,246.731 320.522,246.398 317,241.5C 316.333,235.167 316.333,228.833 317,222.5C 318.045,221.627 318.878,220.627 319.5,219.5 Z"/></g>
<g><path style="opacity:1" fill="#fff5f5" d="M 242.5,219.5 C 252.91,217.411 257.243,221.577 255.5,232C 257.243,242.423 252.91,246.589 242.5,244.5C 242.5,236.167 242.5,227.833 242.5,219.5 Z"/></g>
<g><path style="opacity:1" fill="#ea3e44" d="M 355.5,228.5 C 359.833,228.5 364.167,228.5 368.5,228.5C 368.5,230.833 368.5,233.167 368.5,235.5C 364.167,235.5 359.833,235.5 355.5,235.5C 359.298,234.517 363.298,234.183 367.5,234.5C 367.5,232.833 367.5,231.167 367.5,229.5C 363.298,229.817 359.298,229.483 355.5,228.5 Z"/></g>
<g><path style="opacity:1" fill="#f06a6e" d="M 281.5,235.5 C 281.5,238.5 281.5,241.5 281.5,244.5C 287.69,244.177 293.69,244.51 299.5,245.5C 293.167,245.5 286.833,245.5 280.5,245.5C 280.187,241.958 280.521,238.625 281.5,235.5 Z"/></g>
<g><path style="opacity:1" fill="#ed575c" d="M 390.5,244.5 C 396.833,244.5 403.167,244.5 409.5,244.5C 409.802,247.059 409.468,249.393 408.5,251.5C 408.5,249.5 408.5,247.5 408.5,245.5C 402.31,245.823 396.31,245.49 390.5,244.5 Z"/></g>
</svg>
